<svg xmlns="http://www.w3.org/2000/svg" width="16.758" height="12.569" viewBox="0 0 16.758 12.569">
  <path id="car-solid" d="M16.369,67.666h-1.96L13.864,66.3a3.647,3.647,0,0,0-3.4-2.3H6.3a3.648,3.648,0,0,0-3.4,2.3l-.545,1.362H.4a.393.393,0,0,0-.381.488l.2.786a.393.393,0,0,0,.381.3H1.25a2.08,2.08,0,0,0-.723,1.571v1.571a2.078,2.078,0,0,0,.524,1.372v1.77A1.048,1.048,0,0,0,2.1,76.569H3.146a1.048,1.048,0,0,0,1.047-1.047V74.474h8.379v1.047a1.048,1.048,0,0,0,1.047,1.047h1.047a1.048,1.048,0,0,0,1.047-1.047v-1.77a2.076,2.076,0,0,0,.524-1.372V70.808a2.081,2.081,0,0,0-.722-1.571h.657a.393.393,0,0,0,.381-.3l.2-.786a.393.393,0,0,0-.381-.488ZM4.845,67.082A1.571,1.571,0,0,1,6.3,66.095h4.157a1.571,1.571,0,0,1,1.459.987l.652,1.631H4.193Zm-1.7,5.29a1.044,1.044,0,1,1,0-2.088,2.015,2.015,0,0,1,1.571,1.566C4.717,72.477,3.774,72.373,3.146,72.373Zm10.474,0c-.628,0-1.571.1-1.571-.522a2.015,2.015,0,0,1,1.571-1.566,1.044,1.044,0,1,1,0,2.088Z" transform="translate(-0.004 -64)" fill="#fff"/>
</svg>
