<svg xmlns="http://www.w3.org/2000/svg" width="18.5" height="16.447" viewBox="0 0 18.5 16.447">
  <path id="edit-regular" d="M12.921,11.005l1.028-1.028a.258.258,0,0,1,.44.183v4.67a1.542,1.542,0,0,1-1.542,1.542H1.542A1.542,1.542,0,0,1,0,14.831V3.525A1.542,1.542,0,0,1,1.542,1.983h8.784a.259.259,0,0,1,.183.44L9.481,3.451a.255.255,0,0,1-.183.074H1.542V14.831H12.847V11.185A.253.253,0,0,1,12.921,11.005Zm5.03-6.482L9.517,12.958l-2.9.321a1.327,1.327,0,0,1-1.465-1.465l.321-2.9L13.9.477a1.875,1.875,0,0,1,2.656,0l1.388,1.388a1.881,1.881,0,0,1,0,2.659Zm-3.173.992L12.912,3.65,6.944,9.621l-.234,2.1,2.1-.234Zm2.081-2.56L15.472,1.569a.335.335,0,0,0-.475,0L14,2.561,15.87,4.427l.992-.992A.342.342,0,0,0,16.859,2.956Z" transform="translate(0 0.075)"/>
</svg>
