<svg xmlns="http://www.w3.org/2000/svg" width="21" height="14" viewBox="0 0 21 14">
  <path id="eye-regular" d="M10.5,66.917a4.044,4.044,0,0,0-1.139.182,2.02,2.02,0,0,1,.264.984,2.042,2.042,0,0,1-2.042,2.042,2.02,2.02,0,0,1-.984-.264,4.073,4.073,0,1,0,3.9-2.944Zm10.373,3.551A11.694,11.694,0,0,0,10.5,64,11.7,11.7,0,0,0,.127,70.468a1.179,1.179,0,0,0,0,1.064A11.694,11.694,0,0,0,10.5,78a11.7,11.7,0,0,0,10.373-6.468,1.179,1.179,0,0,0,0-1.064ZM10.5,76.25A9.918,9.918,0,0,1,1.826,71,9.917,9.917,0,0,1,10.5,65.75,9.917,9.917,0,0,1,19.175,71,9.917,9.917,0,0,1,10.5,76.25Z" transform="translate(-0.001 -64)"/>
</svg>
