<svg xmlns="http://www.w3.org/2000/svg" xmlns:xlink="http://www.w3.org/1999/xlink" width="295.721" height="220.157" viewBox="0 0 295.721 220.157">
  <defs>
    <filter id="Ret창ngulo_13" x="0" y="0" width="295.721" height="220.157" filterUnits="userSpaceOnUse">
      <feOffset dy="3" input="SourceAlpha"/>
      <feGaussianBlur stdDeviation="3" result="blur"/>
      <feFlood flood-opacity="0.161"/>
      <feComposite operator="in" in2="blur"/>
      <feComposite in="SourceGraphic"/>
    </filter>
  </defs>
  <g id="Grupo_18" data-name="Grupo 18" transform="translate(-631.117 -457)">
    <g transform="matrix(1, 0, 0, 1, 631.12, 457)" filter="url(#Ret창ngulo_13)">
      <rect id="Ret창ngulo_13-2" data-name="Ret창ngulo 13" width="277.721" height="202.157" rx="20" transform="translate(9 6)" fill="#fff"/>
    </g>
    <text id="Propostas_" data-name="Propostas " transform="translate(721.513 610.16)" font-size="23" font-family="SegoeUI-Semibold, Segoe UI" font-weight="600"><tspan x="0" y="0">Propostas </tspan></text>
    <path id="file-contract-solid" d="M17.692,10.742V0H1.9A1.891,1.891,0,0,0,0,1.9V38.543a1.891,1.891,0,0,0,1.9,1.9H28.434a1.891,1.891,0,0,0,1.9-1.9V12.637H19.588A1.9,1.9,0,0,1,17.692,10.742ZM5.055,5.687a.632.632,0,0,1,.632-.632h6.319a.632.632,0,0,1,.632.632V6.95a.632.632,0,0,1-.632.632H5.687a.632.632,0,0,1-.632-.632Zm0,5.055a.632.632,0,0,1,.632-.632h6.319a.632.632,0,0,1,.632.632v1.264a.632.632,0,0,1-.632.632H5.687a.632.632,0,0,1-.632-.632ZM20.283,30.329h3.727a1.264,1.264,0,1,1,0,2.527H20.283a3.4,3.4,0,0,1-3.052-1.885.875.875,0,0,0-.8-.515.861.861,0,0,0-.791.489l-.606,1.212a1.263,1.263,0,0,1-1.13.7c-.03,0-.059,0-.09,0a1.259,1.259,0,0,1-1.108-.86l-1.329-3.985-.838,2.518A3.41,3.41,0,0,1,7.3,32.857H6.319a1.264,1.264,0,1,1,0-2.527H7.3a.885.885,0,0,0,.84-.605l1.437-4.316a1.9,1.9,0,0,1,3.6,0l1.1,3.289a3.544,3.544,0,0,1,5.213,1.118.9.9,0,0,0,.8.513ZM29.776,8.293,22.044.553A1.894,1.894,0,0,0,20.7,0H20.22V10.11h10.11V9.628A1.89,1.89,0,0,0,29.776,8.293Z" transform="translate(761.952 516.919)"/>
  </g>
</svg>
