<svg xmlns="http://www.w3.org/2000/svg" xmlns:xlink="http://www.w3.org/1999/xlink" width="295.721" height="221.57" viewBox="0 0 295.721 221.57">
  <defs>
    <filter id="Ret창ngulo_22" x="0" y="0" width="295.721" height="220.157" filterUnits="userSpaceOnUse">
      <feOffset dy="3" input="SourceAlpha"/>
      <feGaussianBlur stdDeviation="3" result="blur"/>
      <feFlood flood-opacity="0.161"/>
      <feComposite operator="in" in2="blur"/>
      <feComposite in="SourceGraphic"/>
    </filter>
  </defs>
  <g id="Grupo_20" data-name="Grupo 20" transform="translate(-1355.279 -457)">
    <g transform="matrix(1, 0, 0, 1, 1355.28, 457)" filter="url(#Ret창ngulo_22)">
      <rect id="Ret창ngulo_22-2" data-name="Ret창ngulo 22" width="277.721" height="202.157" rx="20" transform="translate(9 6)" fill="#fff"/>
    </g>
    <path id="Caminho_1" data-name="Caminho 1" d="M195,0" transform="translate(1416.692 678.57)" fill="none" stroke="#707070" stroke-width="2"/>
    <text id="Campanhas" transform="translate(1435.937 610.16)" font-size="23" font-family="SegoeUI-Semibold, Segoe UI" font-weight="600"><tspan x="0" y="0">Campanhas</tspan></text>
    <path id="percent-solid" d="M8.846,17.692A8.846,8.846,0,1,0,0,8.846,8.842,8.842,0,0,0,8.846,17.692Zm0-12.637A3.791,3.791,0,1,1,5.055,8.846,3.792,3.792,0,0,1,8.846,5.055ZM26.538,22.747a8.846,8.846,0,1,0,8.846,8.846A8.842,8.842,0,0,0,26.538,22.747Zm0,12.637a3.791,3.791,0,1,1,3.791-3.791A3.792,3.792,0,0,1,26.538,35.384ZM30.985.016l2.5-.008a1.9,1.9,0,0,1,1.556,2.986L6.113,39.618a1.892,1.892,0,0,1-1.548.806l-2.638.008A1.9,1.9,0,0,1,.371,37.446L29.437.821A1.892,1.892,0,0,1,30.985.016Z" transform="translate(1478.449 516.919)"/>
  </g>
</svg>
