<svg xmlns="http://www.w3.org/2000/svg" width="19.167" height="19.167" viewBox="0 0 19.167 19.167">
  <path id="plus-circle-solid" d="M17.583,8a9.583,9.583,0,1,0,9.583,9.583A9.582,9.582,0,0,0,17.583,8Zm5.565,10.665a.465.465,0,0,1-.464.464H19.129v3.555a.465.465,0,0,1-.464.464H16.5a.465.465,0,0,1-.464-.464V19.129H12.483a.465.465,0,0,1-.464-.464V16.5a.465.465,0,0,1,.464-.464h3.555V12.483a.465.465,0,0,1,.464-.464h2.164a.465.465,0,0,1,.464.464v3.555h3.555a.465.465,0,0,1,.464.464Z" transform="translate(-8 -8)" fill="#0082ff"/>
</svg>
