<svg xmlns="http://www.w3.org/2000/svg" width="16.333" height="18.667" viewBox="0 0 16.333 18.667">
  <path id="trash-alt-regular" d="M9.771,15.167h.875a.437.437,0,0,0,.438-.437V6.854a.438.438,0,0,0-.437-.437H9.771a.437.437,0,0,0-.437.437v7.875A.437.437,0,0,0,9.771,15.167ZM15.75,2.917h-3L11.506.849A1.75,1.75,0,0,0,10,0H6.329a1.75,1.75,0,0,0-1.5.85L3.588,2.917h-3A.583.583,0,0,0,0,3.5v.583a.583.583,0,0,0,.583.583h.583v12.25a1.75,1.75,0,0,0,1.75,1.75h10.5a1.75,1.75,0,0,0,1.75-1.75V4.667h.583a.583.583,0,0,0,.583-.583V3.5A.583.583,0,0,0,15.75,2.917ZM6.265,1.856a.219.219,0,0,1,.188-.106H9.88a.219.219,0,0,1,.188.106L10.7,2.917H5.629Zm7.152,15.061H2.917V4.667h10.5Zm-7.729-1.75h.875A.437.437,0,0,0,7,14.729V6.854a.438.438,0,0,0-.437-.437H5.687a.438.438,0,0,0-.437.437v7.875A.437.437,0,0,0,5.687,15.167Z"/>
</svg>
