<svg xmlns="http://www.w3.org/2000/svg" width="20.758" height="14.531" viewBox="0 0 20.758 14.531">
  <path id="users-solid" d="M3.114,38.227a2.076,2.076,0,1,0-2.076-2.076A2.078,2.078,0,0,0,3.114,38.227Zm14.531,0a2.076,2.076,0,1,0-2.076-2.076A2.078,2.078,0,0,0,17.645,38.227Zm1.038,1.038H16.607a2.07,2.07,0,0,0-1.463.6,4.744,4.744,0,0,1,2.436,3.548H19.72a1.037,1.037,0,0,0,1.038-1.038V41.341A2.078,2.078,0,0,0,18.682,39.265Zm-8.3,0a3.633,3.633,0,1,0-3.633-3.633A3.631,3.631,0,0,0,10.379,39.265ZM12.87,40.3H12.6a5.015,5.015,0,0,1-4.444,0H7.888A3.737,3.737,0,0,0,4.152,44.04v.934a1.557,1.557,0,0,0,1.557,1.557H15.05a1.557,1.557,0,0,0,1.557-1.557V44.04A3.737,3.737,0,0,0,12.87,40.3Zm-7.256-.435a2.07,2.07,0,0,0-1.463-.6H2.076A2.078,2.078,0,0,0,0,41.341v1.038a1.037,1.037,0,0,0,1.038,1.038H3.175a4.756,4.756,0,0,1,2.439-3.548Z" transform="translate(0 -32)" fill="#fff"/>
</svg>
